<svg width="76" height="80" viewBox="0 0 76 80" fill="none" xmlns="http://www.w3.org/2000/svg">
<path d="M50.1055 44.583V49.9997C50.1055 50.9441 49.8065 51.7352 49.2086 52.373C48.6086 53.013 47.8659 53.333 46.9805 53.333H28.2305C27.3451 53.333 26.6034 53.013 26.0055 52.373C25.4055 51.7352 25.1055 50.9441 25.1055 49.9997V44.583C25.1055 44.3052 25.2096 44.0275 25.418 43.7497C25.6263 43.4719 25.9128 43.2497 26.2773 43.083C26.8503 42.8052 27.319 42.4019 27.6836 41.873C28.0482 41.3463 28.2305 40.7219 28.2305 39.9997C28.2305 39.2775 28.0482 38.653 27.6836 38.1263C27.319 37.5975 26.8503 37.1941 26.2773 36.9163C25.9128 36.7497 25.6263 36.5275 25.418 36.2497C25.2096 35.9719 25.1055 35.6941 25.1055 35.4163V29.9997C25.1055 29.0552 25.4055 28.263 26.0055 27.623C26.6034 26.9852 27.3451 26.6663 28.2305 26.6663H46.9805C47.8659 26.6663 48.6086 26.9852 49.2086 27.623C49.8065 28.263 50.1055 29.0552 50.1055 29.9997V35.4163C50.1055 35.6941 50.0013 35.9719 49.793 36.2497C49.5846 36.5275 49.2982 36.7497 48.9336 36.9163C48.3607 37.1941 47.8919 37.5975 47.5273 38.1263C47.1628 38.653 46.9805 39.2775 46.9805 39.9997C46.9805 40.7219 47.1628 41.3463 47.5273 41.873C47.8919 42.4019 48.3607 42.8052 48.9336 43.083C49.2982 43.2497 49.5846 43.4719 49.793 43.7497C50.0013 44.0275 50.1055 44.3052 50.1055 44.583ZM37.6055 34.9997C38.0221 34.9997 38.3867 34.833 38.6992 34.4997C39.0117 34.1663 39.168 33.7775 39.168 33.333C39.168 32.8886 39.0117 32.4997 38.6992 32.1663C38.3867 31.833 38.0221 31.6663 37.6055 31.6663C37.1888 31.6663 36.8242 31.833 36.5117 32.1663C36.1992 32.4997 36.043 32.8886 36.043 33.333C36.043 33.7775 36.1992 34.1663 36.5117 34.4997C36.8242 34.833 37.1888 34.9997 37.6055 34.9997ZM37.6055 41.6663C38.0221 41.6663 38.3867 41.4997 38.6992 41.1663C39.0117 40.833 39.168 40.4441 39.168 39.9997C39.168 39.5552 39.0117 39.1663 38.6992 38.833C38.3867 38.4997 38.0221 38.333 37.6055 38.333C37.1888 38.333 36.8242 38.4997 36.5117 38.833C36.1992 39.1663 36.043 39.5552 36.043 39.9997C36.043 40.4441 36.1992 40.833 36.5117 41.1663C36.8242 41.4997 37.1888 41.6663 37.6055 41.6663ZM37.6055 48.333C38.0221 48.333 38.3867 48.1663 38.6992 47.833C39.0117 47.4997 39.168 47.1108 39.168 46.6663C39.168 46.2219 39.0117 45.833 38.6992 45.4997C38.3867 45.1663 38.0221 44.9997 37.6055 44.9997C37.1888 44.9997 36.8242 45.1663 36.5117 45.4997C36.1992 45.833 36.043 46.2219 36.043 46.6663C36.043 47.1108 36.1992 47.4997 36.5117 47.833C36.8242 48.1663 37.1888 48.333 37.6055 48.333ZM21.9805 76.6663C20.2617 76.6663 18.7909 76.0141 17.568 74.7097C16.343 73.403 15.7305 71.833 15.7305 69.9997V9.99967C15.7305 8.16634 16.343 6.59634 17.568 5.28967C18.7909 3.98523 20.2617 3.33301 21.9805 3.33301H53.2305C54.9492 3.33301 56.4211 3.98523 57.6461 5.28967C58.869 6.59634 59.4805 8.16634 59.4805 9.99967V69.9997C59.4805 71.833 58.869 73.403 57.6461 74.7097C56.4211 76.0141 54.9492 76.6663 53.2305 76.6663H21.9805ZM21.9805 59.9997H53.2305V19.9997H21.9805V59.9997Z" fill="#FFD233"/>
</svg>
