<svg width="20" height="17" viewBox="0 0 20 17" fill="none" xmlns="http://www.w3.org/2000/svg">
<path d="M19.6214 4.79174C19.6104 4.11008 19.4562 3.4352 19.1658 2.79728C18.9139 2.2592 18.5293 1.77053 18.0364 1.36249C17.5434 0.954445 16.9531 0.636004 16.3031 0.427513C15.5424 0.191127 14.7388 0.063309 13.9264 0.0495015C12.8805 0.0108004 12.5489 0 9.89386 0C7.23883 0 6.89852 6.03515e-08 5.86021 0.0495015C5.04822 0.0634105 4.24496 0.191227 3.4846 0.427513C2.8345 0.635859 2.24409 0.954248 1.75115 1.36231C1.25821 1.77037 0.873589 2.25912 0.621906 2.79728C0.335779 3.42652 0.181709 4.09162 0.166354 4.76384C0.119603 5.63056 0.105469 5.90507 0.105469 8.10294C0.105469 10.3008 0.105469 10.5816 0.166354 11.442C0.182663 12.1153 0.335963 12.7795 0.621906 13.4104C0.874012 13.9484 1.25891 14.4369 1.75202 14.8448C2.24512 15.2527 2.83559 15.571 3.48569 15.7793C4.24396 16.0251 5.04736 16.1621 5.8613 16.1843C6.90831 16.223 7.23991 16.2347 9.89495 16.2347C12.55 16.2347 12.8903 16.2347 13.9286 16.1843C14.7409 16.171 15.5446 16.0435 16.3053 15.8072C16.9551 15.5984 17.5453 15.2799 18.0382 14.8719C18.5311 14.4639 18.9158 13.9753 19.168 13.4374C19.4539 12.8074 19.6072 12.1432 19.6235 11.469C19.6703 10.6032 19.6844 10.3287 19.6844 8.12994C19.6822 5.93207 19.6822 5.65307 19.6214 4.79174ZM9.88733 12.2593C7.11053 12.2593 4.86104 10.3971 4.86104 8.09844C4.86104 5.79977 7.11053 3.93761 9.88733 3.93761C11.2204 3.93761 12.4988 4.37599 13.4415 5.15629C14.3841 5.9366 14.9136 6.99492 14.9136 8.09844C14.9136 9.20195 14.3841 10.2603 13.4415 11.0406C12.4988 11.8209 11.2204 12.2593 9.88733 12.2593ZM15.1137 4.75394C14.9597 4.75406 14.8073 4.72904 14.665 4.68033C14.5227 4.63161 14.3935 4.56015 14.2846 4.47003C14.1757 4.37991 14.0894 4.27291 14.0306 4.15514C13.9717 4.03737 13.9415 3.91116 13.9416 3.78371C13.9416 3.65636 13.9719 3.53025 14.0308 3.41259C14.0897 3.29493 14.176 3.18803 14.2848 3.09797C14.3935 3.00792 14.5227 2.93649 14.6648 2.88775C14.807 2.83902 14.9593 2.81393 15.1131 2.81393C15.267 2.81393 15.4193 2.83902 15.5614 2.88775C15.7036 2.93649 15.8327 3.00792 15.9415 3.09797C16.0503 3.18803 16.1366 3.29493 16.1955 3.41259C16.2543 3.53025 16.2846 3.65636 16.2846 3.78371C16.2846 4.32013 15.7606 4.75394 15.1137 4.75394Z" fill="black"/>
<path d="M9.88801 10.8011C11.6912 10.8011 13.153 9.59099 13.153 8.09828C13.153 6.60558 11.6912 5.39551 9.88801 5.39551C8.08482 5.39551 6.62305 6.60558 6.62305 8.09828C6.62305 9.59099 8.08482 10.8011 9.88801 10.8011Z" fill="black"/>
</svg>
