<svg width="20" height="17" viewBox="0 0 20 17" fill="none" xmlns="http://www.w3.org/2000/svg">
<path fill-rule="evenodd" clip-rule="evenodd" d="M0.105469 1.35633C0.105469 0.996613 0.277805 0.651624 0.584564 0.397263C0.891323 0.142901 1.30738 1.80818e-06 1.7412 1.80818e-06H18.0469C18.2619 -0.000289347 18.4748 0.0345838 18.6736 0.102625C18.8723 0.170665 19.0529 0.270538 19.205 0.396523C19.3571 0.522509 19.4777 0.672135 19.56 0.836833C19.6422 1.00153 19.6845 1.17807 19.6844 1.35633V14.8769C19.6847 15.0552 19.6425 15.2318 19.5603 15.3965C19.4782 15.5613 19.3576 15.711 19.2056 15.8372C19.0536 15.9633 18.8731 16.0633 18.6744 16.1315C18.4758 16.1997 18.2628 16.2348 18.0478 16.2347H1.7412C1.52632 16.2347 1.31354 16.1996 1.11503 16.1314C0.916514 16.0631 0.736153 15.9632 0.584249 15.8372C0.432346 15.7111 0.311877 15.5615 0.229726 15.3969C0.147575 15.2322 0.105352 15.0558 0.105469 14.8776V1.35633ZM7.85517 6.18984H10.5063V7.2938C10.889 6.65917 11.868 6.088 13.3391 6.088C16.1593 6.088 16.8277 7.35209 16.8277 9.67144V13.9677H13.9736V10.1998C13.9736 8.87889 13.5909 8.13357 12.6191 8.13357C11.2708 8.13357 10.7101 8.93719 10.7101 10.1998V13.9677H7.85517V6.18984ZM2.96044 13.8666H5.8154V6.088H2.96044V13.8659V13.8666ZM6.22389 3.55097C6.22927 3.75366 6.18578 3.9552 6.09595 4.14376C6.00613 4.33233 5.87178 4.50412 5.7008 4.64904C5.52983 4.79397 5.32566 4.90912 5.10029 4.98774C4.87491 5.06636 4.63287 5.10685 4.38836 5.10685C4.14386 5.10685 3.90182 5.06636 3.67644 4.98774C3.45107 4.90912 3.2469 4.79397 3.07592 4.64904C2.90495 4.50412 2.7706 4.33233 2.68078 4.14376C2.59095 3.9552 2.54745 3.75366 2.55284 3.55097C2.5634 3.15311 2.76143 2.7745 3.10451 2.49622C3.44758 2.21794 3.90843 2.06211 4.38836 2.06211C4.86829 2.06211 5.32915 2.21794 5.67222 2.49622C6.0153 2.7745 6.21333 3.15311 6.22389 3.55097Z" fill="black"/>
</svg>
