<svg width="41" height="42" viewBox="0 0 41 42" fill="none" xmlns="http://www.w3.org/2000/svg">
<path d="M19.1992 5.95565L13.7383 0.286133H9.19141L14.6445 5.95565H19.1992ZM31.0117 5.95565L25.5586 0.286133H21.0117L26.4648 5.95565H31.0117ZM32.832 0.286133L38.2852 5.95565H40.1055V0.286133H32.832ZM32.832 13.5177H25.5586L31.0117 7.8482H26.4648L21.0117 13.5177H13.7383L19.1914 7.8482H14.6445L9.19141 13.5177H1.92578L7.37891 7.8482H0.105469V38.0965C0.105469 40.1758 1.73828 41.8734 3.73828 41.8734H36.4648C38.4727 41.8734 40.0977 40.1758 40.0977 38.0965V7.8482H38.2773L32.832 13.5177ZM1.92578 0.286133H0.105469V5.95565H7.37891L1.92578 0.286133Z" fill="#FFE601"/>
</svg>
