<svg width="69" height="68" viewBox="0 0 69 68" fill="none" xmlns="http://www.w3.org/2000/svg">
<path d="M61.8551 21.6669C63.4906 21.6669 65.0592 22.3166 66.2156 23.4731C67.3721 24.6296 68.0218 26.1981 68.0218 27.8336V40.1669C68.0218 41.8024 67.3721 43.3709 66.2156 44.5274C65.0592 45.6839 63.4906 46.3336 61.8551 46.3336H58.5806C57.829 52.2946 54.9277 57.7764 50.4214 61.7503C45.915 65.7241 40.1134 67.9168 34.1051 67.9169V61.7503C39.0117 61.7503 43.7172 59.8012 47.1866 56.3317C50.656 52.8623 52.6051 48.1568 52.6051 43.2503V24.7503C52.6051 19.8438 50.656 15.1382 47.1866 11.6688C43.7172 8.19936 39.0117 6.25026 34.1051 6.25026C29.1986 6.25026 24.4931 8.19936 21.0237 11.6688C17.5542 15.1382 15.6051 19.8438 15.6051 24.7503V46.3336H6.35514C4.71964 46.3336 3.15113 45.6839 1.99465 44.5274C0.838177 43.3709 0.188477 41.8024 0.188477 40.1669V27.8336C0.188477 26.1981 0.838177 24.6296 1.99465 23.4731C3.15113 22.3166 4.71964 21.6669 6.35514 21.6669H9.62964C10.3821 15.7065 13.2836 10.2255 17.7899 6.25235C22.2962 2.27917 28.0974 0.0869141 34.1051 0.0869141C40.1129 0.0869141 45.9141 2.27917 50.4204 6.25235C54.9266 10.2255 57.8282 15.7065 58.5806 21.6669H61.8551ZM21.0318 45.6707L24.3001 40.4413C27.2388 42.2822 30.6375 43.2559 34.1051 43.2503C37.5728 43.2559 40.9715 42.2822 43.9101 40.4413L47.1785 45.6707C43.2604 48.1255 38.7287 49.424 34.1051 49.4169C29.4816 49.424 24.9499 48.1255 21.0318 45.6707Z" fill="#FFD233"/>
</svg>
