<svg width="80" height="79" viewBox="0 0 80 79" fill="none" xmlns="http://www.w3.org/2000/svg">
<path d="M23.3682 59.2499V33.0977H55.8437M31.836 59.2499H55.8437V41.8864" stroke="#FFD233" stroke-width="3" stroke-linecap="round" stroke-linejoin="round"/>
<path d="M31.7812 43.789L38.5868 50.5946L47.4298 41.7531M32.726 26.4765C32.726 24.6925 33.4346 22.9816 34.6961 21.7202C35.9576 20.4587 37.6685 19.75 39.4525 19.75C41.2365 19.75 42.9474 20.4587 44.2088 21.7202C45.4703 22.9816 46.179 24.6925 46.179 26.4765M46.179 26.4765V33.0977M32.7293 26.3366V33.0977" stroke="#FFD233" stroke-width="3" stroke-linecap="round" stroke-linejoin="round"/>
<path d="M49.9546 73.3485C41.7654 75.8581 32.9442 75.3146 25.1251 71.8187C17.3059 68.3227 11.0188 62.1113 7.42844 54.3351C3.83807 46.5588 3.18778 37.7448 5.59804 29.5259C8.0083 21.3069 13.3157 14.2401 20.5372 9.63446C27.7586 5.02884 36.4045 3.19663 44.8733 4.47724C53.3422 5.75784 61.0598 10.0645 66.5966 16.5993C72.1335 23.1342 75.1142 31.4543 74.9866 40.0184C74.859 48.5826 71.6318 56.8102 65.9027 63.1772" stroke="#FFD233" stroke-width="3" stroke-linecap="round" stroke-linejoin="round"/>
</svg>
