<svg width="20" height="17" viewBox="0 0 20 17" fill="none" xmlns="http://www.w3.org/2000/svg">
<path d="M19.6844 1.92573C18.9644 2.25115 18.191 2.47103 17.3778 2.57042C18.2168 2.05835 18.8445 1.25243 19.1438 0.303011C18.3555 0.780582 17.4928 1.11674 16.5931 1.29687C15.9881 0.63799 15.1868 0.201274 14.3136 0.0545237C13.4403 -0.0922264 12.544 0.0592005 11.7637 0.485295C10.9835 0.911389 10.363 1.58831 9.99855 2.41096C9.63413 3.23362 9.54618 4.15598 9.74836 5.03484C8.15114 4.95304 6.58864 4.5296 5.16225 3.79199C3.73586 3.05438 2.47747 2.0191 1.46873 0.753327C1.12382 1.3602 0.925498 2.06381 0.925498 2.81317C0.925113 3.48776 1.08798 4.15201 1.39965 4.747C1.71132 5.34199 2.16215 5.84931 2.71214 6.22395C2.07429 6.20325 1.45052 6.02745 0.892731 5.71119V5.76396C0.892667 6.7101 1.21353 7.62712 1.80087 8.35943C2.38821 9.09173 3.20586 9.59422 4.11508 9.78162C3.52336 9.94496 2.903 9.96902 2.30084 9.85198C2.55736 10.6661 3.05705 11.378 3.72995 11.888C4.40285 12.398 5.21527 12.6807 6.05348 12.6964C4.63058 13.8357 2.87329 14.4537 1.06433 14.451C0.743885 14.4511 0.423716 14.432 0.105469 14.3938C1.94168 15.598 4.07915 16.2371 6.26215 16.2347C13.6519 16.2347 17.6917 9.99182 17.6917 4.57749C17.6917 4.40158 17.6874 4.22392 17.6796 4.04801C18.4654 3.46839 19.1437 2.75063 19.6827 1.92837L19.6844 1.92573Z" fill="black"/>
</svg>
