<svg width="20" height="17" viewBox="0 0 20 17" fill="none" xmlns="http://www.w3.org/2000/svg">
<path d="M19.2758 2.53602C19.1643 2.04494 18.9458 1.59711 18.6421 1.23734C18.3384 0.87757 17.9601 0.618482 17.5452 0.486006C16.0177 9.86152e-08 9.89494 0 9.89494 0C9.89494 0 3.77215 -9.86152e-08 2.24473 0.483421C1.8296 0.615467 1.45114 0.874411 1.14736 1.23425C0.843584 1.59408 0.625183 2.04215 0.514092 2.53344C0.105469 4.34303 0.105469 8.11734 0.105469 8.11734C0.105469 8.11734 0.105469 11.8916 0.514092 13.6987C0.739162 14.6965 1.40345 15.4824 2.24473 15.7487C3.77215 16.2347 9.89494 16.2347 9.89494 16.2347C9.89494 16.2347 16.0177 16.2347 17.5452 15.7487C18.3886 15.4824 19.0507 14.6965 19.2758 13.6987C19.6844 11.8916 19.6844 8.11734 19.6844 8.11734C19.6844 8.11734 19.6844 4.34303 19.2758 2.53602ZM7.95016 11.5814V4.65325L13.0197 8.09149L7.95016 11.5814Z" fill="black"/>
</svg>
